#!OML:ASF F:\VICON\USERDATA\INSTALL\rory3\rory3.ASF
:FULLY-SPECIFIED
:DEGREES
55
root 0.051090110924941035 17.97426233422164 11.509805881914733 -1.6101662470730354 -5.027054098311158 -7.1323769997854765
lfemur -18.041341920305555 2.0597617964449073 -12.148363476849898
ltibia 54.62912090312386
lfoot -8.802705326253655 -2.560802307549768
ltoes -6.508793760516539
rfemur -3.3109054371266176 7.190801632322195 32.21509120340517
rtibia 26.92195938384431
rfoot -19.119017617857203 -10.024836832538991
rtoes -6.321879787036678
lowerback 10.322854985307929 1.5849025444588327 5.83903324992446
upperback 0.12092651964538269 3.0331660890604457 1.999193490185096
thorax -5.677549245091319 1.3987584220602565 -0.9271400327431039
lowerneck -16.17443338787714 -3.0691841694358737 -1.3999309547400443
upperneck 21.545879215655408 -3.9424336120754964 -0.3925150148845977
head 9.56524109548392 -1.9488897417991637 -0.5360059546507311
lclavicle -3.616362944169053e-16 5.803562888401549e-16
lhumerus -35.12797229358905 7.973623696804152 81.38355376708425
lradius 22.177557711415986
lwrist 8.032374120449965
lhand -27.598954739799076 19.552085663692083
lfingers 7.12502
lthumb -1.1602336945823737 49.58901496129349
rclavicle -3.6163629432970974e-16 5.803562888989822e-16
rhumerus -24.889607827865827 -13.644136599332462 -75.0299148275794
rradius 32.80101930099773
rwrist 2.7988462966048067
rhand -18.17424673894471 22.10091135794556
rfingers 7.12502
rthumb 8.072797505439617 -5.593125681870289
56
root 0.06565664877229199 17.974654500268933 11.73596277977358 -1.8038146684206364 -4.783246801039569 -7.306570069211505
lfemur -18.44066998118788 1.7573439196643286 -12.285443774614837
ltibia 52.682165149973784
lfoot -9.243237854656922 -2.751036290548751
ltoes -5.901276181755639
rfemur -2.0474069043881684 7.261764680876736 32.424661798721495
rtibia 27.451036552239856
rfoot -18.65608418988665 -9.955265104159004
rtoes -7.151032448719097
lowerback 10.202947137449467 1.7977860972257522 6.186122008176731
upperback 0.10352276478751266 3.2952214781013707 1.9385291352796234
thorax -5.600297707946315 1.4954232614289995 -1.2644114639588768
lowerneck -16.172877190282563 -3.093558324577506 -1.363180314075573
upperneck 21.699496004876018 -3.9931022659771087 -0.3234632973219026
head 9.64694327010305 -1.964987964304249 -0.5333605242516541
lclavicle -3.6163629441043896e-16 5.803562888439642e-16
lhumerus -35.576223842306035 8.47824128118946 81.30451778217572
lradius 22.419917146167833
lwrist 8.160560164887352
lhand -27.61706188347868 19.115493798039328
lfingers 7.12502
lthumb -1.1524624900231126 49.20543415391564
rclavicle -3.616362943194987e-16 5.803562889052296e-16
rhumerus -25.213220555131855 -13.225872435868386 -75.00293453438903
rradius 33.09317225253619
rwrist 2.3454776015394203
rhand -18.172660923657983 22.17153045253364
rfingers 7.12502
rthumb 8.035422270854832 -5.387438243553388
57
root 0.08479519138927316 17.970530963853452 12.203889979918767 -2.0414175351382737 -4.390776836731671 -7.266485986572219
lfemur -18.797487248865643 1.451024613968985 -12.688718215308029
ltibia 50.63119206580538
lfoot -9.706966825956158 -3.1873304276172014
ltoes -8.033229938158218
rfemur -0.9551385511586048 7.279942199565394 32.3819429568381
rtibia 28.19567715168947
rfoot -18.315705175466036 -10.050068884357119
rtoes -7.322375914745952
lowerback 10.13065689406649 1.9724570973650457 6.380356658642442
upperback 0.0789756206384134 3.497116770011897 1.8559257694565585
thorax -5.46578697002814 1.5956507111249205 -1.5110387645125147
lowerneck -16.129057692970573 -3.119196928197607 -1.3785424454372934
upperneck 21.821918779533195 -4.0273755529509625 -0.2241615760744251
head 9.686050249309636 -1.9751444494699095 -0.48839960080846095
lclavicle -3.6163629441109317e-16 5.803562888431716e-16
lhumerus -35.440827755171014 9.336942155273544 81.2896657147537
lradius 22.54723920679209
lwrist 8.409804995060355
lhand -27.662967914706343 18.624026966674734
lfingers 7.12502
lthumb -1.1974741541681633 48.695804063256766
rclavicle -3.6163629432165227e-16 5.803562889034373e-16
rhumerus -25.687616119615065 -13.1148788646857 -75.11423298289463
rradius 33.36475574895741
rwrist 2.67560713645787
rhand -18.202751730693077 22.125169423358923
rfingers 7.12502
rthumb 7.982702304125676 -5.4928276462950025
58
root 0.10132818882410519 17.95934834941421 12.50802535536622 -2.3746519689555994 -3.9259559738622487 -7.042549048944853
lfemur -18.902500244703504 1.0195551885005096 -13.32083322431829
ltibia 48.30575338134038
lfoot -10.025187989108302 -3.669179432572929
ltoes -8.287333768411848
rfemur 0.02519026830328741 7.208687902853361 32.20915137471254
rtibia 29.603308937872903
rfoot -17.791578860066476 -10.039472499767555
rtoes -7.403705457655794
lowerback 10.168906368697126 2.0833253346705494 6.355085906637751
upperback 0.02923432598951299 3.5872835499750035 1.7339017178187246
thorax -5.3703442930153065 1.677212323756247 -1.7267892870628727
lowerneck -16.035399071049167 -3.1381056693578726 -1.428786876075874
upperneck 21.833409514530274 -4.064483494121072 -0.1135058268596989
head 9.686010685469428 -1.9878854940066648 -0.43799570884095956
lclavicle -3.616362944176782e-16 5.803562888384306e-16
lhumerus -35.56709070364634 9.59627436960632 81.12115925544111
lradius 22.628307055508714
lwrist 8.547410666963922
lhand -27.8028414637172 18.36599962925843
lfingers 7.12502
lthumb -1.352724229032237 48.35802636285834
rclavicle -3.6163629430865815e-16 5.803562889116963e-16
rhumerus -26.02959850520755 -12.962465666510361 -75.51229320187672
rradius 33.548115447412584
rwrist 3.2461214501510556
rhand -18.28496739919412 21.871770568345305
rfingers 7.12502
rthumb 7.927721987463075 -6.070203147437077
